<svg xmlns="http://www.w3.org/2000/svg"><symbol id="search" viewBox="0 0 176.292 176.292"><path d="M24.027 46.333c-4.32 16.125-2.103 32.968 6.244 47.426 11.132 19.281 31.892 31.259 54.178 31.259a62.367 62.367 0 0 0 24.474-5.03l32.507 56.303 12.99-7.5-32.508-56.305c11.174-8.353 19.19-20.117 22.856-33.802 4.32-16.125 2.103-32.968-6.244-47.426C127.393 11.978 106.633 0 84.347 0c-10.912 0-21.7 2.899-31.199 8.383-14.458 8.347-24.799 21.825-29.121 37.95zM84.347 15c16.944 0 32.727 9.104 41.188 23.759 6.344 10.988 8.029 23.789 4.745 36.044-3.283 12.255-11.143 22.499-22.131 28.842-7.222 4.169-15.416 6.373-23.699 6.373-16.944 0-32.727-9.104-41.188-23.759-6.344-10.988-8.029-23.788-4.745-36.043C41.801 37.96 49.66 27.717 60.648 21.373 67.87 17.204 76.064 15 84.347 15z"/></symbol></svg>